<?xml version="1.0" ?><!-- Uploaded to: SVG Repo, www.svgrepo.com, Generator: SVG Repo Mixer Tools -->
<svg width="800px" height="800px" viewBox="0 0 48 48" id="Layer_1" version="1.1" xml:space="preserve" xmlns="http://www.w3.org/2000/svg" xmlns:xlink="http://www.w3.org/1999/xlink"><style type="text/css">
	.st0{fill:#010101;}
</style><path class="st0" d="M6.536,34.345l2.76,6.842c0,0.001,0.002,0.002,0.002,0.003c0.034,0.082,0.093,0.147,0.162,0.201  c0.017,0.013,0.032,0.023,0.05,0.033C9.584,41.468,9.667,41.5,9.76,41.5h5.894c1.094,0,2.164-0.443,2.937-1.216l1.514-1.514  c1.23-1.229,3.23-1.229,4.459-0.001l0.167,0.168c1.617,1.618,4.253,1.62,5.874,0c1.229-1.229,3.229-1.23,4.46,0l1.347,1.347  c0.772,0.773,1.843,1.216,2.937,1.216H41c0.276,0,0.5-0.224,0.5-0.5s-0.224-0.5-0.5-0.5h-1.653c-0.83,0-1.643-0.336-2.229-0.923  l-1.347-1.347c-0.784-0.785-1.827-1.217-2.938-1.217c-1.109,0-2.152,0.432-2.937,1.217c-1.23,1.229-3.23,1.229-4.459,0.001  l-0.167-0.168c-1.62-1.621-4.256-1.619-5.874,0l-1.514,1.514c-0.587,0.587-1.399,0.923-2.229,0.923h-5.153l2.483-6.155  c0.003-0.008,0.001-0.017,0.003-0.025c0.018-0.051,0.033-0.104,0.033-0.162V11.527c0-0.053-0.015-0.102-0.03-0.15  c0.01-0.05,0.03-0.097,0.03-0.15V9.76c0-1.797-1.462-3.26-3.26-3.26S6.5,7.962,6.5,9.76v1.467c0,0.053,0.02,0.099,0.03,0.15  c-0.015,0.048-0.03,0.097-0.03,0.15v22.631c0,0.057,0.015,0.111,0.033,0.162C6.535,34.328,6.533,34.337,6.536,34.345z M12.02,12.027  v21.631h-1.76V12.027H12.02z M9.26,33.658H7.5V12.027h1.76V33.658z M9.76,39.664l-2.019-5.005h4.037L9.76,39.664z M7.5,9.76  c0-1.246,1.014-2.26,2.26-2.26s2.26,1.014,2.26,2.26v1.267H7.5V9.76z"/><path class="st0" d="M26.875,34.495h2c3.032,0,5.5-2.467,5.5-5.5v-11c0-0.827-0.673-1.5-1.5-1.5h-10c-0.827,0-1.5,0.673-1.5,1.5v11  C21.375,32.027,23.843,34.495,26.875,34.495z M22.375,17.995c0-0.276,0.225-0.5,0.5-0.5h10c0.275,0,0.5,0.224,0.5,0.5v10.5h-11  V17.995z M33.348,29.495c-0.25,2.247-2.16,4-4.473,4h-2c-2.313,0-4.223-1.753-4.473-4H33.348z"/></svg>